<svg xmlns="http://www.w3.org/2000/svg" width="1360" height="600" viewBox="0 0 1360 600">
<rect width="100%" height="100%" fill="#ffffff"/>
<text x="92" y="42" font-family="Inter, Arial, sans-serif" font-size="26" font-weight="700" fill="#0f172a">KV Retention Replay Cached Tokens</text>
<text x="92" y="70" font-family="Inter, Arial, sans-serif" font-size="14" fill="#64748b">Replay cached tokens versus distractor count</text>
<rect x="92" y="96" width="1020" height="428" rx="14" fill="#f8fafc" stroke="#dbe4f0"/>
<line x1="92" y1="524.00" x2="1112" y2="524.00" stroke="#e2e8f0" stroke-width="1"/>
<text x="78" y="529.50" text-anchor="end" font-family="JetBrains Mono, monospace" font-size="13" fill="#64748b">0</text>
<line x1="92" y1="438.40" x2="1112" y2="438.40" stroke="#e2e8f0" stroke-width="1"/>
<text x="78" y="443.90" text-anchor="end" font-family="JetBrains Mono, monospace" font-size="13" fill="#64748b">120</text>
<line x1="92" y1="352.80" x2="1112" y2="352.80" stroke="#e2e8f0" stroke-width="1"/>
<text x="78" y="358.30" text-anchor="end" font-family="JetBrains Mono, monospace" font-size="13" fill="#64748b">241</text>
<line x1="92" y1="267.20" x2="1112" y2="267.20" stroke="#e2e8f0" stroke-width="1"/>
<text x="78" y="272.70" text-anchor="end" font-family="JetBrains Mono, monospace" font-size="13" fill="#64748b">361</text>
<line x1="92" y1="181.60" x2="1112" y2="181.60" stroke="#e2e8f0" stroke-width="1"/>
<text x="78" y="187.10" text-anchor="end" font-family="JetBrains Mono, monospace" font-size="13" fill="#64748b">482</text>
<line x1="92" y1="96.00" x2="1112" y2="96.00" stroke="#e2e8f0" stroke-width="1"/>
<text x="78" y="101.50" text-anchor="end" font-family="JetBrains Mono, monospace" font-size="13" fill="#64748b">602</text>
<line x1="92.00" y1="96" x2="92.00" y2="524" stroke="#eef2f7" stroke-width="1"/>
<text x="92.00" y="554" text-anchor="middle" font-family="JetBrains Mono, monospace" font-size="13" fill="#475569">25</text>
<line x1="432.00" y1="96" x2="432.00" y2="524" stroke="#eef2f7" stroke-width="1"/>
<text x="432.00" y="554" text-anchor="middle" font-family="JetBrains Mono, monospace" font-size="13" fill="#475569">50</text>
<line x1="772.00" y1="96" x2="772.00" y2="524" stroke="#eef2f7" stroke-width="1"/>
<text x="772.00" y="554" text-anchor="middle" font-family="JetBrains Mono, monospace" font-size="13" fill="#475569">75</text>
<line x1="1112.00" y1="96" x2="1112.00" y2="524" stroke="#eef2f7" stroke-width="1"/>
<text x="1112.00" y="554" text-anchor="middle" font-family="JetBrains Mono, monospace" font-size="13" fill="#475569">100</text>
<circle cx="92.00" cy="205.55" r="4.8" fill="#ffffff" stroke="#2563eb" stroke-width="2.6"/>
<polyline fill="none" stroke="#16a34a" stroke-width="3.2" points="92.00,205.55 432.00,205.55 772.00,205.55 1112.00,205.55"/>
<circle cx="92.00" cy="205.55" r="4.8" fill="#ffffff" stroke="#16a34a" stroke-width="2.6"/>
<circle cx="432.00" cy="205.55" r="4.8" fill="#ffffff" stroke="#16a34a" stroke-width="2.6"/>
<circle cx="772.00" cy="205.55" r="4.8" fill="#ffffff" stroke="#16a34a" stroke-width="2.6"/>
<circle cx="1112.00" cy="205.55" r="4.8" fill="#ffffff" stroke="#16a34a" stroke-width="2.6"/>
<text x="28" y="310.00" transform="rotate(-90 28 310.00)" font-family="Inter, Arial, sans-serif" font-size="16" font-weight="700" fill="#334155">Replay Cached Tokens</text>
<text x="602.00" y="580" text-anchor="middle" font-family="Inter, Arial, sans-serif" font-size="16" font-weight="700" fill="#334155">Distractor Count</text>
<line x1="1132" y1="188" x2="1160" y2="188" stroke="#2563eb" stroke-width="3.2"/>
<circle cx="1146" cy="188" r="4.8" fill="#ffffff" stroke="#2563eb" stroke-width="2.6"/>
<text x="1170" y="193.5" font-family="Inter, Arial, sans-serif" font-size="15" font-weight="600" fill="#334155">control: none</text>
<line x1="1132" y1="232" x2="1160" y2="232" stroke="#16a34a" stroke-width="3.2"/>
<circle cx="1146" cy="232" r="4.8" fill="#ffffff" stroke="#16a34a" stroke-width="2.6"/>
<text x="1170" y="237.5" font-family="Inter, Arial, sans-serif" font-size="15" font-weight="600" fill="#334155">protected: high-priority</text>
</svg>